<svg xmlns="http://www.w3.org/2000/svg" viewBox="0 0 24.33 23.94"><defs><style>.cls-1{fill:#fff;}.cls-1,.cls-2,.cls-3{stroke:#000;stroke-miterlimit:10;}.cls-1,.cls-3{stroke-width:0.75px;}.cls-2,.cls-3{fill:none;}.cls-2{stroke-width:0.5px;}</style></defs><title>court_Ресурс 1</title><g id="Слой_2" data-name="Слой 2"><g id="Layer_1" data-name="Layer 1"><rect class="cls-1" x="3.75" y="9.34" width="2.58" height="8.58"/><path class="cls-1" d="M2.58,7.84a1.42,1.42,0,0,0-.11.55A1.51,1.51,0,0,0,4,9.9H6.1A1.52,1.52,0,0,0,7.61,8.39a1.42,1.42,0,0,0-.11-.55Z"/><path class="cls-1" d="M7.5,19.59a1.5,1.5,0,0,0-1.4-2.06H4a1.5,1.5,0,0,0-1.4,2.06Z"/><rect class="cls-1" x="10.88" y="9.34" width="2.58" height="8.58"/><path class="cls-1" d="M9.71,7.84a1.42,1.42,0,0,0-.11.55A1.51,1.51,0,0,0,11.1,9.9h2.13a1.51,1.51,0,0,0,1.5-1.51,1.63,1.63,0,0,0-.1-.55Z"/><path class="cls-1" d="M14.63,19.59a1.74,1.74,0,0,0,.1-.56,1.5,1.5,0,0,0-1.5-1.5H11.1a1.5,1.5,0,0,0-1.39,2.06Z"/><rect class="cls-1" x="18.01" y="9.34" width="2.58" height="8.58"/><path class="cls-1" d="M16.84,7.84a1.42,1.42,0,0,0-.11.55,1.51,1.51,0,0,0,1.5,1.51h2.13a1.51,1.51,0,0,0,1.5-1.51,1.42,1.42,0,0,0-.11-.55Z"/><path class="cls-1" d="M21.75,19.59a1.5,1.5,0,0,0-1.39-2.06H18.23a1.5,1.5,0,0,0-1.39,2.06Z"/><line class="cls-2" x1="5.04" y1="9.9" x2="5.04" y2="17.53"/><line class="cls-2" x1="12.11" y1="9.9" x2="12.11" y2="17.53"/><line class="cls-2" x1="19.28" y1="9.9" x2="19.28" y2="17.53"/><rect class="cls-1" x="2.17" y="19.59" width="20" height="1.5"/><polygon class="cls-3" points="23.96 7.74 0.38 7.74 0.38 6.32 12.18 0.42 23.96 6.32 23.96 7.74"/><ellipse class="cls-3" cx="11.98" cy="4.29" rx="1.56" ry="1.57"/><rect class="cls-1" x="0.54" y="20.99" width="23.25" height="2.58"/><line class="cls-2" x1="0.58" y1="22.28" x2="3.75" y2="22.28"/><line class="cls-2" x1="20.58" y1="22.28" x2="23.75" y2="22.28"/></g></g></svg>