<svg xmlns="http://www.w3.org/2000/svg" viewBox="0 0 21.45 21.15">
    <defs>
        <style>
            .cls-1,.cls-2{fill:none;stroke:#b7b7b7;stroke-miterlimit:10;}.cls-1{stroke-width:0.69px;}.cls-2{stroke-width:0.75px;}
        </style>
    </defs>
    <title>document_Ресурс 1</title>
    <g id="document">
        <rect class="cls-1" x="0.4" y="0.35" width="20.7" height="18.66"/>
        <line class="cls-2" x1="4.25" y1="0.35" x2="4.25" y2="19.01"/>
        <line class="cls-2" x1="8" y1="0.35" x2="8" y2="19.01"/>
        <path class="cls-2" d="M3.17,16.24a.82.82,0,1,1-.82-.83A.82.82,0,0,1,3.17,16.24Z"/>
        <path class="cls-2" d="M7,16.24a.82.82,0,1,1-.82-.83A.82.82,0,0,1,7,16.24Z"/>
        <line class="cls-2" y1="20.77" x2="21.41" y2="20.77"/>
        <line class="cls-2" x1="10.39" y1="4.25" x2="16.14" y2="4.25"/>
        <line class="cls-2" x1="10.39" y1="6.07" x2="18.9" y2="6.07"/>
        <line class="cls-2" x1="10.39" y1="7.89" x2="16.14" y2="7.89"/>
        <line class="cls-2" x1="10.39" y1="9.71" x2="18.9" y2="9.71"/>
    </g>
</svg>